<mxfile host="app.diagrams.net" modified="2022-02-14T12:06:15.642Z" agent="5.0 (X11; Linux x86_64) AppleWebKit/537.36 (KHTML, like Gecko) Chrome/98.0.4758.80 Safari/537.36 Edg/98.0.1108.50" etag="NfHHouwpJZBbACHOsIPm" version="16.5.2" type="github">
  <diagram id="kgpKYQtTHZ0yAKxKKP6v" name="Page-1">
    <mxGraphModel dx="683" dy="434" grid="1" gridSize="10" guides="1" tooltips="1" connect="1" arrows="1" fold="1" page="1" pageScale="1" pageWidth="850" pageHeight="1100" math="0" shadow="0">
      <root>
        <mxCell id="0" />
        <mxCell id="1" parent="0" />
        <mxCell id="3nuBFxr9cyL0pnOWT2aG-1" value="Cliente" style="shape=umlLifeline;perimeter=lifelinePerimeter;container=1;collapsible=0;recursiveResize=0;rounded=0;shadow=0;strokeWidth=1;" parent="1" vertex="1">
          <mxGeometry x="35" y="90" width="100" height="300" as="geometry" />
        </mxCell>
        <mxCell id="3nuBFxr9cyL0pnOWT2aG-2" value="" style="points=[];perimeter=orthogonalPerimeter;rounded=0;shadow=0;strokeWidth=1;" parent="3nuBFxr9cyL0pnOWT2aG-1" vertex="1">
          <mxGeometry x="45" y="70" width="10" height="190" as="geometry" />
        </mxCell>
        <mxCell id="3nuBFxr9cyL0pnOWT2aG-5" value="Gerente" style="shape=umlLifeline;perimeter=lifelinePerimeter;container=1;collapsible=0;recursiveResize=0;rounded=0;shadow=0;strokeWidth=1;" parent="1" vertex="1">
          <mxGeometry x="180" y="90" width="100" height="300" as="geometry" />
        </mxCell>
        <mxCell id="3nuBFxr9cyL0pnOWT2aG-6" value="" style="points=[];perimeter=orthogonalPerimeter;rounded=0;shadow=0;strokeWidth=1;" parent="3nuBFxr9cyL0pnOWT2aG-5" vertex="1">
          <mxGeometry x="45" y="80" width="10" height="160" as="geometry" />
        </mxCell>
        <mxCell id="KE9UqYUo_kO8XwsWE6Dw-8" value="Confirmar conductor" style="verticalAlign=bottom;endArrow=block;shadow=0;strokeWidth=1;" edge="1" parent="3nuBFxr9cyL0pnOWT2aG-5">
          <mxGeometry relative="1" as="geometry">
            <mxPoint x="55" y="100.00000000000011" as="sourcePoint" />
            <mxPoint x="190" y="100" as="targetPoint" />
          </mxGeometry>
        </mxCell>
        <mxCell id="3nuBFxr9cyL0pnOWT2aG-9" value="Confirmar Disponibilidad" style="verticalAlign=bottom;endArrow=block;shadow=0;strokeWidth=1;" parent="1" target="3nuBFxr9cyL0pnOWT2aG-1" edge="1">
          <mxGeometry x="-0.0367" relative="1" as="geometry">
            <mxPoint x="230" y="210" as="sourcePoint" />
            <mxPoint x="95" y="210" as="targetPoint" />
            <Array as="points">
              <mxPoint x="230" y="210" />
              <mxPoint x="160" y="210" />
            </Array>
            <mxPoint as="offset" />
          </mxGeometry>
        </mxCell>
        <mxCell id="KE9UqYUo_kO8XwsWE6Dw-1" value="Conductor" style="shape=umlLifeline;perimeter=lifelinePerimeter;container=1;collapsible=0;recursiveResize=0;rounded=0;shadow=0;strokeWidth=1;" vertex="1" parent="1">
          <mxGeometry x="330" y="90" width="100" height="300" as="geometry" />
        </mxCell>
        <mxCell id="KE9UqYUo_kO8XwsWE6Dw-2" value="" style="points=[];perimeter=orthogonalPerimeter;rounded=0;shadow=0;strokeWidth=1;" vertex="1" parent="KE9UqYUo_kO8XwsWE6Dw-1">
          <mxGeometry x="45" y="80" width="10" height="160" as="geometry" />
        </mxCell>
        <mxCell id="KE9UqYUo_kO8XwsWE6Dw-3" value="Seguridad" style="shape=umlLifeline;perimeter=lifelinePerimeter;container=1;collapsible=0;recursiveResize=0;rounded=0;shadow=0;strokeWidth=1;" vertex="1" parent="1">
          <mxGeometry x="490" y="90" width="100" height="300" as="geometry" />
        </mxCell>
        <mxCell id="KE9UqYUo_kO8XwsWE6Dw-4" value="" style="points=[];perimeter=orthogonalPerimeter;rounded=0;shadow=0;strokeWidth=1;" vertex="1" parent="KE9UqYUo_kO8XwsWE6Dw-3">
          <mxGeometry x="45" y="80" width="10" height="160" as="geometry" />
        </mxCell>
        <mxCell id="KE9UqYUo_kO8XwsWE6Dw-5" value="Sistema" style="shape=umlLifeline;perimeter=lifelinePerimeter;container=1;collapsible=0;recursiveResize=0;rounded=0;shadow=0;strokeWidth=1;" vertex="1" parent="1">
          <mxGeometry x="640" y="90" width="100" height="300" as="geometry" />
        </mxCell>
        <mxCell id="KE9UqYUo_kO8XwsWE6Dw-6" value="" style="points=[];perimeter=orthogonalPerimeter;rounded=0;shadow=0;strokeWidth=1;" vertex="1" parent="KE9UqYUo_kO8XwsWE6Dw-5">
          <mxGeometry x="45" y="80" width="10" height="160" as="geometry" />
        </mxCell>
        <mxCell id="KE9UqYUo_kO8XwsWE6Dw-7" value="Avisar de la salida" style="verticalAlign=bottom;endArrow=block;entryX=0;entryY=0;shadow=0;strokeWidth=1;" edge="1" parent="1" source="KE9UqYUo_kO8XwsWE6Dw-2">
          <mxGeometry relative="1" as="geometry">
            <mxPoint x="390" y="220.0000000000001" as="sourcePoint" />
            <mxPoint x="535" y="220.0000000000001" as="targetPoint" />
            <Array as="points">
              <mxPoint x="535" y="220" />
            </Array>
          </mxGeometry>
        </mxCell>
        <mxCell id="KE9UqYUo_kO8XwsWE6Dw-11" value="Confirmar aprobacion" style="verticalAlign=bottom;endArrow=open;dashed=1;endSize=8;exitX=0.071;exitY=0.745;shadow=0;strokeWidth=1;exitDx=0;exitDy=0;exitPerimeter=0;" edge="1" parent="1" source="KE9UqYUo_kO8XwsWE6Dw-4">
          <mxGeometry relative="1" as="geometry">
            <mxPoint x="390" y="289.9999999999998" as="targetPoint" />
            <mxPoint x="525" y="289.9999999999998" as="sourcePoint" />
          </mxGeometry>
        </mxCell>
        <mxCell id="KE9UqYUo_kO8XwsWE6Dw-12" value="Avisar de la salida" style="verticalAlign=bottom;endArrow=block;entryX=0;entryY=0;shadow=0;strokeWidth=1;" edge="1" parent="1">
          <mxGeometry relative="1" as="geometry">
            <mxPoint x="550" y="239.77" as="sourcePoint" />
            <mxPoint x="685" y="239.6600000000001" as="targetPoint" />
            <Array as="points" />
          </mxGeometry>
        </mxCell>
      </root>
    </mxGraphModel>
  </diagram>
</mxfile>
